<?xml version="1.0" encoding="utf-8"?>
<!-- Generator: Adobe Illustrator 24.0.1, SVG Export Plug-In . SVG Version: 6.00 Build 0)  -->
<svg version="1.1" id="Livello_1" xmlns="http://www.w3.org/2000/svg" xmlns:xlink="http://www.w3.org/1999/xlink" x="0px" y="0px"
	 viewBox="0 0 6553.6 5784.4" style="enable-background:new 0 0 6553.6 5784.4;" xml:space="preserve">
<style type="text/css">
	.st0{fill-rule:evenodd;clip-rule:evenodd;}
	.st1{font-family:'HelveticaNeue-Bold';}
	.st2{font-size:3.2768px;}
</style>
<g>
	<path class="st0" d="M5523.8,4571.5c-33.5-138.8-97.7-532.8-104-679.4c-7.7-187.5,63.6-341.5,60-542.5
		c-2.9-199.8-34.4-397.2-56.7-594.7c-23.3-211.6,4.2-353.8,27.8-560.3c22.1-189.2,65.4-326.1,125.5-504
		c27.7-80.9,33.2-163.9,57.6-244.4c25.8-84.2,75-156.5,107.4-237.6c60.6-151.1,89.7-350,171.5-491.9c45.4-77.5,105-157.3,57.6-249.7
		c-50.3-97.8-153-113.9-250.5-92.9c-222.7,47.9-369.5,157-509.2,329.8c-137.4,168.9-153.5,271.6-226.8,468.4
		c-105.9,282.3-184.3,862-606.1,786.8c-176.9-31.6-235.2-277-343.3-425.5c-95.3-131.3-214.9-387-359.2-445.2
		c-150.6-60.3-356.2-132.6-501.7-36.4c-190.3,125.6-185,298.8-130,496.1c-124.2,14.7-289.1,83-343,205.5
		c-22,48.6-39.1,124.2-48.3,175.7c-16.3,91.2,24.7,152.7,23.4,195.7c-30.3-3.8-100.6-42.1-141-42.7c-54-0.8-116.9,6-165,30.5
		c-82.3,41.8-173.3,130.1-199.5,220.1c-30,104.5-35.5,203.4-11.6,310.2c11.9,51.5,36.4,129.9,58.8,177.6
		c25.8,55,16.5,118.4,35.8,149.2c-167.8-31.6-252.7-120.6-401.9-193.8c-155.2-75.8-245.9-100.9-398.2-202.9
		c-127.6-85.6-261.2-155.8-368.5-267.5c-104.3-107.8-224.4-236.7-348-321.5c-132-91.2-292.7-130-404.7,17.2
		c-116.2,153.1,35.1,325,137.5,436.2c214.5,235.5,453.8,418.8,692.4,629.6c225.4,199.5,505,318.2,736.1,526.2
		c105.9,95.8,220.1,249.4,322.2,359.6c112.9,121.8,207.2,254.8,324.5,375.3c105.8,107.8,227.2,214.8,361,285.9
		c422.1,224.3,464.4,194.2,664.7,671.1c66.6,160.1,237.8,323.8,398.8,271.4c553.8-180.1,758.8-276,1139.9-429.4
		C5490.1,4974.1,5555.9,4705,5523.8,4571.5z"/>
</g>
<text transform="matrix(1 0 0 1 0 5523.7822)" class="st1 st2">Created by Martin Hanžl</text>
<text transform="matrix(1 0 0 1 0 5527.0586)" class="st1 st2">from the Noun Project</text>
</svg>
