<?xml version="1.0" encoding="utf-8"?>
<!-- Generator: Adobe Illustrator 24.0.1, SVG Export Plug-In . SVG Version: 6.00 Build 0)  -->
<svg version="1.1" id="Livello_1" xmlns="http://www.w3.org/2000/svg" xmlns:xlink="http://www.w3.org/1999/xlink" x="0px" y="0px"
	 viewBox="0 0 958 682" style="enable-background:new 0 0 958 682;" xml:space="preserve">
<style type="text/css">
	.st0{stroke:#000000;stroke-width:8;stroke-miterlimit:10;}
</style>
<g>
	<path d="M144.1,334.7c38.4,72.9,73.7,137.1,105.9,176.6c2.4,3,0.3,4.8-4.9,4.6c-4.9-0.3-10.1-2.5-12.6-5.4
		c-12.2-14.8-24.9-32.7-38-53.2c-7.6-0.7-15.2-1.8-22.8-3.1c13.6,21,26.7,39.6,39.4,55c2.5,3.1,0.7,5-4.4,4.8
		c-4.8-0.2-10.1-2.5-12.7-5.8c-35.6-43.7-74.4-115.9-116.3-177.1c-3.1-4.4-0.9-6.7,5.2-6c5.8,0.7,12.1,4.4,15.1,9.2
		c22.4,35.3,43.9,72.8,64.5,105.5c7.7,1.5,15.4,2.6,23.1,3.4c-19.8-32.1-40.6-69.8-62.3-107.6c-2.9-5.1-0.6-8.8,5.3-9.2
		C134.6,326,141.2,329.4,144.1,334.7z"/>
	<path d="M258.6,498.8c-1.5-2.2-3-4.4-4.6-6.6c-0.2-0.3-0.4-0.5-0.5-0.8c-4.3-6.3-8.7-13-13.1-20.1c-8.4-13.6-9.7-23.1,9.3-32.7
		c8.4-4.4,10-13.3,6.5-20.5c-1.4-2.8-2.7-5.6-4.1-8.4c-3.7-7.7-8.6-16.3-20.3-14.1c-10,1.8-8.4,8.4-4.7,16.3
		c1.7,3.3,3.4,6.6,5.1,9.9c2.2,4.2-0.2,7.5-5.7,8c-5.8,0.5-11.8-2.6-14.4-7.3c-1.7-3-3.3-6.1-5-9.2c-9.5-17.7-7.4-30.6,16.3-35.1
		c24.1-5.2,37.9,3,47.4,24.1c16.2,35.4,31.7,65.7,46.3,92.2c7.6,14,5,23.4-15.9,23.5C281.5,518.1,267.9,511.7,258.6,498.8z
		 M271.3,490.2c0.1,0.2,0.3,0.4,0.4,0.6c1.6,2.5,3.2,5,4.8,7.4c3.6,4.9,8.5,10.4,18,10c9.6-0.4,6.7-6.7,3.1-13.2
		c-9.2-15.4-18.7-32.3-28.4-51.1c-1.9,4.4-5.9,7.3-8.1,8.9c-6.7,5.2-9,5.6-4.8,12.8C261.4,474.3,266.4,482.5,271.3,490.2z"/>
	<path d="M355.7,514.7c-5.1,0.6-10.1-1.8-12.1-5.7c-16.6-32.6-34.4-68.8-53.4-112.4c-9.3-21.3-5.2-35.5,19.5-45.2
		c24.4-10,38.7-0.3,45.9,19.5c16.9,45.5,32.5,85.7,47,126.7c1.7,4.9-1.1,9.3-6.6,10.5c-5.2,1.1-10.1-1.5-11.9-6.1
		c-15-38.1-31.3-76.8-48.7-121.6c-3.7-8.4-8.1-14.7-18.4-10.5c-12,4.8-8.9,14.2-5.5,22.3c17.9,43.1,34.7,79.7,50.3,114.1
		C363.7,510.6,361.1,514.1,355.7,514.7z"/>
	<path d="M469.1,550.2c-21,2.3-30.6-8-37.2-28.2c-0.3-0.9-0.5-1.8-0.8-2.7c-1.6-5.3,1.3-10.1,6.8-11.5c5.2-1.4,10,1.4,11.3,6.5
		c2.2,8.6,4.9,17,15.3,15c9.7-2,9.8-9.6,7.2-21c-2.5-11-5-21.7-7.6-32.2c-0.3,0.1-1,4.3-4.1,8.3c-2.5,3.7-6.2,6.7-10.8,8.1
		c-15.6,4.8-26.7-2.5-33.7-23.7c-11.5-35.1-23.8-69.6-36.8-106.7c-7.6-21.4-1.4-38.9,22.5-50.5c25.3-12.4,38.6-3.4,44.7,16.6
		c17,56,32.1,111.2,45.5,179C495.7,530.4,489.6,547.1,469.1,550.2z M456.3,445.9c-9.6-35.9-19.8-69.6-30.8-104.2
		c-3.1-9.7-7.6-18.8-18.9-13.1c-11.3,5.6-9.5,15.5-7.2,23.6c1.3,3.8,2.6,7.7,3.8,11.5c0.1,0.4,0.3,0.8,0.4,1.2
		c10.9,32.6,21.2,63.9,30.8,96.4c2.5,8.4,4.8,14.3,15.9,10.1C460.5,467.6,459.5,457.9,456.3,445.9z"/>
	<path d="M559,438.7c1.1,7.2-2.4,14.4-8.2,16.8c-5.5,2.3-10.2-1.3-11.3-8.2c-15.6-95.3-34.3-163-56.2-234.1
		c-1.6-5.2,2.2-10.8,9-13.1c6.5-2.2,12.2-0.1,13.7,4.8C526.9,272.4,544.5,340.2,559,438.7z"/>
	<path d="M575.6,397.9c-7.2-48.5-15.2-89.1-24.1-125.4c-5.3-21.3,1.5-35.3,28.1-46c26.2-10.2,38.8-3.2,42.4,14.8
		c7.1,34.6,13.3,76.3,18.7,127.7c2.9,28-7.2,52.1-27.6,60.2C589.8,438.8,579.4,423.3,575.6,397.9z M573.9,264.9
		c7.9,34.3,15,73.4,21.3,120.2c2,12.3,4.7,25.1,15.3,20.5c11.7-5,10.7-20.5,9.4-31.6c-5.7-47.8-12.2-87.2-19.4-121
		c-2.3-8.9-5.1-15.6-16.9-10.6C570.8,248.2,572.1,256.8,573.9,264.9z"/>
	<path d="M661.3,361c-4.9-52.1-10.6-94.2-17.1-128.3c-3.9-20,3.8-31.6,31-40.1c26.8-8.1,38.8-1.4,41.2,16.3
		c4.8,33.8,8.7,77.5,11.8,131.5c1.6,29.4-9.6,52.4-30.5,58.3C673.8,405.9,664,388.4,661.3,361z M667,227.1
		c5.7,32.6,10.6,73.1,14.7,122.9c1.5,13.2,3.5,26.9,14.5,23.6c12-3.6,11.7-19.8,10.9-31.5c-3.5-50.4-7.8-91.5-12.8-124
		c-1.7-8.6-4-14.9-16.2-11.1C664.9,211.5,665.7,219.4,667,227.1z"/>
	<path d="M747.9,336.3c-0.2-5.1-0.5-10-0.7-14.9c-0.4-7.5,3.9-13.7,10.4-14.9c6.1-1,10.6,3.3,10.9,10.1c0,0.8,0.6,14.1,0.6,15.1
		c0.9,14,3.3,25.7,13.9,24.8c11.9-0.9,12.4-17.5,12-29.4c-0.1-2.5-0.1-5-0.2-7.5c-1-47.2-51.4-71-56.2-109c-0.3-2.6-0.6-5-0.9-7.5
		c-2.4-19.1,7.2-30.2,33.4-37.2c27.1-7.1,39.2,0.2,40.5,20.3c0.2,3.5,0.5,7.1,0.7,10.8c0.3,5.7-4.4,10.9-11.3,12
		c-6.5,1.1-11.3-1.9-11.6-6.7c0-0.7-0.8-10.2-0.8-10.7c-1.1-8.6-4.4-13.7-15.6-11c-13.1,3.2-12.9,11.3-12.1,19
		c0.2,1.8,0.4,3.6,0.5,5.4c3.3,29.9,54.3,51.9,55,113.8c0.1,3.7,0.1,7.5,0.2,11.3c0.4,32.6-9.8,51.1-33,52.4
		C758.2,383.6,749.4,367,747.9,336.3z"/>
	<path d="M905.7,167.3c0,4.7,0,9.5,0.1,14.4c0,0.6,0,1.1,0,1.7c0,13.7,0,28.1-0.1,42.9c-0.2,28.5-6.3,48.4-32.4,57.8
		c-11.6,4.4-17.7,17.4-17.7,29.8c0,4.8,0,9.6,0,14.4c0,13.2,0.6,28,13.2,30.5c10.8,2.3,12.8-8.6,13.4-22.7c0.1-6,0.2-12,0.2-17.9
		c0.1-7.7,4.6-12.2,10.9-11.1c6.7,1.2,11.4,8.7,11.2,17.8c-0.1,5.9-0.2,11.7-0.4,17.6c-0.8,33.8-10.9,52.1-35.8,46
		c-25.2-5.3-34.2-23.5-34.5-58c-0.4-58-1.6-108.7-3.6-148.3c-1.1-20.7,7.8-33.8,36.2-43.2C893.2,130.1,905.6,138.1,905.7,167.3z
		 M882.3,188.2c0-0.4,0-0.8,0-1.2c-0.1-4.9-0.1-9.7-0.2-14.4c-0.6-9.6-2.4-17.8-15-14.5c-12.6,3.3-13.4,11.8-13.5,22.8
		c0.9,25.9,1.4,55.7,1.7,88.4c4.4-6.3,10.4-10.1,13.8-12.1c10.5-7,13.6-7.5,13.6-21.4C882.6,219.1,882.5,203.2,882.3,188.2z"/>
</g>
<g>
	<path d="M336.4,616.4c-6.9-0.5-11.2-3.3-13.5-8.3c-0.4-0.8-0.8-1.6-1.1-2.5c0-0.1-0.1-0.2-0.1-0.3c-3.7-8.1-7.5-16.8-11.3-25.6
		c-2.2-5,0.3-6.9,4.6-5.7c4.5,1.3,7,4.3,7.4,4.9c-2.3-5.4-4.7-10.9-7.1-16.4c-0.6-1.4,0.4-2.1,2.3-1.6c1.8,0.4,3.5,1.7,4.1,3.1
		c7.2,17.2,14.3,33.6,21.2,46.8C344.9,614.8,343.7,616.9,336.4,616.4z M329.1,608.9c0.9,1.8,2.3,3.7,5.6,4.1
		c3.3,0.4,2.6-1.5,1.7-3.5c-3.8-7.4-7.5-15.7-11.4-24.3c-1.5-3.5-3.4-5.2-6.1-5.9c-3.7-1-2.9,1.1-1.9,3.2
		C321.1,591.7,325.1,600.7,329.1,608.9z"/>
	<path d="M333.5,571c2,0.3,4.1,1.8,4.7,3.3c0.6,1.5-0.5,2.4-2.5,2c-2.1-0.4-4.1-1.8-4.7-3.3C330.4,571.6,331.4,570.6,333.5,571z
		 M357.8,616.7c0.6,0.9-0.4,1.5-2.2,1.3c-1.7-0.2-3.4-1-4-1.9c-5.5-9.7-11.1-21.6-16.8-34.9c-0.6-1.4,0.4-2.1,2.3-1.7
		c1.8,0.3,3.5,1.5,4.1,2.9C346.8,595.6,352.3,607.4,357.8,616.7z"/>
	<path d="M379.3,627.1c-7.2-0.4-10.6-1.7-12.9-4.9c-0.1-0.1-0.2-0.3-0.3-0.4c-0.5-0.8,0.4-1.4,2.2-1.2c1.8,0.1,3.4,0.8,3.8,1.5
		c0.8,1.2,1.8,2.4,5.3,2.6c3.3,0.2,3.2-0.6,2.2-2.1c-1-1.4-1.9-3-2.9-4.6c-0.1,0-0.3,0.5-1.3,0.8c-0.8,0.3-2,0.5-3.5,0.3
		c-5.2-0.4-8.9-2.2-11.2-6.3c-3.8-6.9-7.6-14.9-11.5-23.9c-2.2-5.2-0.3-7.7,6.8-7c7.6,0.6,11.6,4.1,13.6,9
		c5.6,13.5,11.2,24.5,16.6,32.6C388.1,626.3,386.3,627.4,379.3,627.1z M374,613.1c-3.4-6.3-6.9-13.7-10.4-21.9c-1-2.3-2.4-4.7-5.8-5
		c-3.4-0.3-2.9,1.8-2.2,3.7c0.4,0.9,0.8,1.8,1.2,2.7c0,0.1,0.1,0.2,0.1,0.3c3.4,7.7,6.7,14.6,10,20.5c0.9,1.5,1.7,2.6,5.3,2.9
		C375.6,616.6,375.2,615.2,374,613.1z"/>
	<path d="M372.8,573.8c2,0,4.1,1.3,4.7,2.8c0.6,1.6-0.6,2.9-2.6,2.9c-2.1,0-4.1-1.2-4.7-2.8C369.6,575.2,370.6,573.9,372.8,573.8z
		 M395.8,619.4c0.5,0.9-0.4,1.5-2.3,1.4c-1.8-0.1-3.4-0.8-3.9-1.7c-5.2-8.8-10.5-20.2-15.8-33.9c-0.5-1.4,0.4-2.4,2.4-2.4
		c1.8,0,3.5,1,4,2.4C385.4,599.1,390.7,610.6,395.8,619.4z"/>
	<path d="M398.7,581.7c1.9-0.2,3.7,0.7,4.2,2.2c0.5,1.4-0.6,2.5-2.5,2.7c-1,0.1-1.9,0.2-2.9,0.2c4.9,13.3,9.7,24.3,14.4,33
		c0.5,0.9-0.5,1.6-2.3,1.5c-1.8,0-3.4-0.7-3.9-1.6c-4.8-8.5-9.6-19.4-14.5-32.5c-0.9,0-1.7,0.1-2.6,0.1c-1.9,0.1-3.7-0.9-4.2-2.3
		c-0.5-1.3,0.5-2.4,2.4-2.5c0.9,0,1.7-0.1,2.6-0.1c-1.7-4.8-3.5-9.8-5.2-15.1c-0.5-1.6,0.5-3,2.4-3.2c1.8-0.2,3.5,0.8,4.1,2.5
		c1.7,5.4,3.5,10.4,5.2,15.3C396.7,581.9,397.7,581.8,398.7,581.7z"/>
	<path d="M418.3,615.3c-0.3-0.7-0.7-1.4-1-2.1c0-0.1-0.1-0.2-0.1-0.2c-0.9-2-1.8-4-2.8-6.1c-1.8-4.1-1.4-7.1,5.3-9.9
		c3-1.3,3.9-3.8,3.2-6c-0.3-0.8-0.6-1.6-0.9-2.5c-0.8-2.3-1.9-4.8-5.6-4.2c-3.2,0.5-3.1,2.4-2.4,4.8c0.4,1,0.7,1.9,1.1,2.9
		c0.5,1.2-0.5,2.2-2.3,2.4c-1.9,0.2-3.7-0.6-4.2-2c-0.3-0.9-0.7-1.8-1-2.7c-1.9-5.2-0.4-9.2,7.1-10.4c7.6-1.3,11.4,1.4,13.5,7.5
		c3.5,10.3,6.9,19.4,10.3,27.3c1.8,4.1,0.3,6.8-7.1,7.1C424.5,621.3,420.3,619.4,418.3,615.3z M423.4,612.5c0,0.1,0.1,0.1,0.1,0.2
		c0.4,0.8,0.7,1.5,1.1,2.3c0.8,1.5,2.1,3.2,5.4,3.1c3.3-0.2,2.8-2.1,2-4.1c-2.1-4.7-4.2-9.8-6.3-15.4c-0.9,1.3-2.3,2.1-3.1,2.6
		c-2.5,1.5-3.3,1.7-2.4,3.8C421.2,607.6,422.3,610.1,423.4,612.5z"/>
	<path d="M453,617.7c0.5,1.1-0.5,2.1-2.4,2.2c-1.8,0.2-3.4-0.5-3.9-1.6c-6.5-14.9-13.2-34.1-20.1-58.3c-0.5-1.8,0.5-3.4,2.5-3.9
		c1.9-0.5,3.5,0.5,4,2.3C440,582.8,446.6,602.3,453,617.7z"/>
	<path d="M483.6,606.6c-3.8-11.7-7.6-24.4-11.5-38.7c-0.5-1.7,0.4-3.3,2.5-4c2-0.7,3.6,0.2,4,1.9c3.9,14.4,7.7,27.5,11.4,39.5
		c0.6,2,1.9,3.8,5.1,3c3.2-0.7,3.2-2.7,2.6-5.1c-3.7-12.4-7.4-25.6-11.2-40.1c-0.5-1.7,0.5-3.5,2.4-4.1c2-0.7,3.7,0,4.1,1.8
		c3.4,13.4,6.8,25.8,10.1,37.6c0,0.1,0.1,0.2,0.1,0.3c0.3,1,0.6,2,0.8,3c1.6,5.6,0.4,9.7-7,11.3c-5.4,1.1-8.3-1.6-9.2-3.1
		c0.1,1.7-0.8,5.1-5.9,6c-7.5,1.2-10.6-0.9-12.5-6.2c-3.9-11-7.8-23.3-11.8-37.3c-0.5-1.7,0.5-3.3,2.3-3.8c1.9-0.6,3.7,0.2,4.2,1.9
		c3.9,13.9,7.7,26.2,11.5,37.3c0.7,2.1,1.7,4.3,5.4,3.6c3-0.6,3.1-2.3,2.6-4.4c0-0.1,0-0.1,0-0.2
		C483.7,606.7,483.7,606.7,483.6,606.6z"/>
	<path d="M510.3,599.9c-0.3-1-0.6-2-0.8-3c0-0.1-0.1-0.2-0.1-0.3c-0.8-2.8-1.5-5.7-2.3-8.6c-1.5-5.5-0.9-9.8,6-15.1
		c3.1-2.4,4.2-5.9,3.6-8.5c-0.2-1-0.5-2-0.7-3c-0.7-2.7-1.6-5.6-5.4-4.1c-3.3,1.3-3.3,3.7-2.7,6.5c0.3,1.2,0.6,2.3,0.9,3.5
		c0.4,1.5-0.7,3-2.5,3.7c-1.9,0.7-3.7,0-4.1-1.7c-0.3-1.1-0.6-2.2-0.8-3.3c-1.6-6.3,0.1-11.7,7.8-14.6c7.7-3.1,11.4-0.6,13.2,6.6
		c2.9,12.2,5.8,24,8.7,35.6c1.5,6.1-0.2,11.1-7.7,13.1C516.1,608.5,512,606,510.3,599.9z M515.7,594.3c0,0.1,0,0.2,0.1,0.3
		c0.3,1.1,0.6,2.2,0.9,3.4c0.7,2.3,1.8,4.8,5.2,3.8c3.4-1,3-4,2.4-6.9c-1.7-6.9-3.5-13.9-5.3-21c-0.9,1.9-2.5,3.4-3.3,4.2
		c-2.6,2.7-3.4,3-2.7,6C513.9,587.4,514.8,590.9,515.7,594.3z"/>
	<path d="M540.3,542.1c-0.1-1.7,0.8-3.3,2.6-4c2.1-0.9,3.8,0,4,2c1.4,18.6,2.7,36.9,4.1,55.3c0.1,1.7-0.9,3.2-2.6,3.7
		c-0.1,0-0.1,0-0.2,0.1c-1.7,0.5-3.2-0.1-3.8-1.6c-6.4-16.4-12.9-31.9-19.5-48.3c-0.7-1.8,0.5-3.9,2.7-4.8c1.6-0.7,3.1-0.1,3.7,1.4
		c3.3,8.6,6.6,17.1,9.8,25.6c0.9,2.5,1.8,5,2.7,7.5c-0.3-2.8-0.6-5.6-0.8-8.3C542.1,561.2,541.2,551.7,540.3,542.1z"/>
	<path d="M573.9,536.2c0.2,1.2,0.5,2.3,0.7,3.5c0,0.1,0.1,0.3,0.1,0.4c0.7,3.2,1.4,6.5,2,9.8c1.3,6.3,0.5,11.3-6.5,17.2
		c-3.1,2.6-4.3,6.4-3.7,9.2c0.2,1.1,0.4,2.1,0.6,3.2c0.6,2.9,1.4,6,5.2,4.6c3.2-1.2,3.3-3.9,2.8-7c-0.3-1.3-0.5-2.6-0.8-3.9
		c-0.3-1.7,0.7-3.3,2.6-4.1c1.9-0.8,3.6,0,4,1.9c0.2,1.2,0.5,2.5,0.7,3.7c1.3,7.1-0.6,13-8.1,15.7c-7.6,2.7-11.1-0.1-12.7-7.6
		c-2.7-12.8-5.4-25.2-8.1-37.6c-1.4-6.5,0.3-12,8.1-15.3C568.3,526.8,572.4,529.2,573.9,536.2z M568.2,543.2c0-0.1,0-0.2-0.1-0.3
		c-0.3-1.3-0.5-2.5-0.8-3.8c-0.7-2.5-1.6-4.8-5.1-3.3c-3.5,1.5-3.3,4.3-2.7,7.5c1.6,7.5,3.3,15.1,4.9,22.7c1-2,2.5-3.7,3.4-4.6
		c2.7-3,3.5-3.5,2.9-6.7C569.8,550.9,569,547,568.2,543.2z"/>
	<path d="M604.9,596.5c-3.9-25.6-8-47.9-12.2-68.3c-1.5-7.2,0.6-11.8,8.5-15c7.8-3.1,11.5-0.2,12.7,6.1c0.2,1.1,0.4,2.3,0.7,3.4
		c0,0.1,0.1,0.3,0.1,0.4c2.1,11,4.2,22.9,6.3,35.7c1.1,6.9,0.2,13-7.4,15.9c-2.3,0.9-5,0.3-5.7-2c1.1,6.9,2.3,14.1,3.4,21.6
		c0.3,2.2-0.8,4.4-2.7,5C606.7,599.9,605.2,598.7,604.9,596.5z M602.4,518.8c-3.9,1.6-3.5,4.7-2.9,7.4c2.2,11.1,4.5,22.9,6.6,35.5
		c0.7,4,1.6,7.9,5.3,6.4c3.5-1.4,3.4-3.7,2.9-7.4c-2.3-13.9-4.6-26.6-7-38.6C606.8,519.5,605.7,517.5,602.4,518.8z"/>
	<path d="M629.3,565.3c-2.7-18.2-5.5-34.3-8.3-48.9c-1.4-7.1,0.8-11.4,8.7-14.4c7.8-2.9,11.5-0.1,12.7,6c0.2,1.1,0.4,2.2,0.6,3.3
		c0.3,1.7-0.9,3.5-2.9,4.3c-1.9,0.7-3.4,0.2-3.7-1.4c-0.2-1.2-0.4-2.4-0.7-3.5c-0.5-2.7-1.6-4.6-4.9-3.3c-3.9,1.5-3.5,4.6-3,7.1
		c2.7,14.2,5.4,30.1,8,48.1c0.3,2.2-0.9,4.3-2.8,5.1C631.2,568.5,629.7,567.4,629.3,565.3z"/>
	<path d="M653,546c-2.1-14.8-4.3-27.9-6.5-39.6c-1.3-6.8,0.9-10.9,8.9-13.6c7.8-2.6,11.5,0,12.6,5.9c2.1,11.3,4.1,24.4,6.1,39.4
		c1.1,8.1-2.1,15-8.8,17.4C657.6,558.4,654.2,553.8,653,546z M653.4,504.8c2.1,11.1,4.1,23.5,6.1,37.6c0.6,3.7,1.5,7.5,5,6.2
		c3.8-1.4,3.5-5.9,3-9.2c-1.9-14.1-3.9-26.6-5.9-37.6c-0.7-2.9-1.4-5.1-5-3.9C652.6,499.4,652.9,502.2,653.4,504.8z"/>
	<path d="M692.5,546c-7.3,2.4-11.2-1.6-12.3-10.1c-0.2-1.4-0.4-2.8-0.5-4.1c0-0.2,0-0.3-0.1-0.5c-1.8-13.3-3.6-24.9-5.5-35
		c-1.1-5.8,2.4-10.3,6.9-11.7c4.8-1.5,6.7,1.1,7,1.7c-1.1-5.9-2.3-11.2-3.4-15.9c-0.3-1.2,1-2.4,3-2.9c1.9-0.5,3.5,0,3.8,1.2
		c3.5,14.1,6.8,33.8,10,60.2C702.4,536.8,700.3,543.5,692.5,546z M686.8,533.5c0.5,3.1,1.4,6.6,4.9,5.5c3.5-1.2,3.4-5.3,3-9.1
		c-1.8-14-3.5-26.1-5.4-36.6c-0.7-4.2-2.4-5.3-5.2-4.4c-3.9,1.2-3.6,3.6-3.1,6.1C683,506,684.9,518.8,686.8,533.5z"/>
	<path d="M719.3,474.6c1.9-0.5,3.6,0.2,3.8,1.6c2.1,11.7,4.2,26.6,6.2,44.8c0.9,8-1.3,14.6-9.1,16.6c-7.3,2-11.2-2.2-12.2-10.8
		c-2.1-18.1-4.4-33.1-6.6-45.1c-0.3-1.4,1-2.8,3-3.4c1.9-0.5,3.5,0.1,3.7,1.6c2.2,11.9,4.4,26.8,6.5,44.9c0.5,3.1,1.3,6.7,4.8,5.8
		c3.4-0.9,3.4-4.8,3.1-8.7c-2-17.8-4.1-32.4-6.2-44C716.1,476.4,717.4,475.1,719.3,474.6z"/>
	<path d="M736.1,519.4c-1.6-15.2-3.3-28.2-5-38.8c-1-6.2,1.4-9.4,9.4-11.2c7.9-1.7,11.4,0.9,12.3,6.5c0.1,1,0.3,2,0.4,3
		c0.2,1.6-1.1,3.1-3.1,3.5c-1.9,0.4-3.4-0.3-3.6-1.8c0-0.2-0.5-3.1-0.5-3.2c-0.5-2.4-1.4-4.2-4.7-3.4c-3.9,0.8-3.8,3.4-3.4,5.8
		c1.6,10.2,3.2,22.6,4.7,37c0.5,3.8,1.3,7.8,4.8,7.1c3.5-0.7,3.6-4.6,3.4-7.8c0-0.4-0.4-4.2-0.5-4.6c-0.2-1.9,1.1-3.4,3.1-3.8
		c1.9-0.4,3.4,0.9,3.6,3c0.1,1.4,0.3,2.8,0.4,4.2c0.9,8.7-2,14.6-9.4,16C740.3,532.6,737,527.4,736.1,519.4z"/>
	<path d="M770.7,463.8c2-0.4,3.7,0.3,3.9,1.8c0.2,1.4-1.1,2.6-3.2,3c-1,0.2-2,0.4-3.1,0.5c2,13.7,4,31.6,5.8,53.5
		c0.2,2.4-1.1,4.3-3.1,4.5c-1.9,0.2-3.4-1.3-3.6-3.7c-1.9-21.8-3.9-39.6-6-53.2c-0.9,0.2-1.8,0.3-2.7,0.5c-2,0.4-3.7-0.4-3.9-1.8
		c-0.2-1.3,1.1-2.5,3.1-2.9c0.9-0.2,1.8-0.4,2.7-0.5c-0.7-4.4-1.5-8.3-2.2-11.7c-0.2-1,1.1-2,3.1-2.5c1.9-0.4,3.5,0,3.7,1.1
		c0.7,3.4,1.5,7.3,2.2,11.8C768.7,464.2,769.7,464,770.7,463.8z"/>
	<path d="M780.9,453.6c2.2-0.4,4.1,0.3,4.3,1.6c0.2,1.4-1.3,2.8-3.5,3.2c-2.3,0.4-4.1-0.4-4.3-1.7
		C777.2,455.5,778.6,454.1,780.9,453.6z M791.6,521c0.2,2.4-1.1,4.3-3.1,4.4c-1.9,0.1-3.3-1.5-3.5-3.9c-1.9-23.3-3.9-42.4-5.9-56.7
		c-0.2-1.5,1.1-2.7,3.2-3.1c1.9-0.3,3.5,0.4,3.7,1.9C787.9,478.2,789.8,497.5,791.6,521z"/>
	<path d="M798,510.3c-1.3-16-2.6-29.8-4-41.4c-0.8-6.7,1.7-10,9.9-11.5c8-1.5,11.4,1.8,12.1,8.4c1.2,12.6,2.5,27.3,3.6,43.9
		c0.6,9-2.9,14.8-9.8,14.8C801.9,524.6,798.7,518.7,798,510.3z M801,468.8c1.3,11.3,2.5,24.8,3.7,40c0.4,4.1,1.1,8.3,4.6,8.2
		c3.9,0,3.8-4.9,3.5-8.5c-1.1-15.5-2.3-29.2-3.5-40.9c-0.4-3.1-1.1-5.5-4.7-5C800.6,463.4,800.7,466.1,801,468.8z"/>
	<path d="M830.1,525.1c-1.9-0.1-3.3-2-3.5-4.5c-1.3-21.2-2.7-39.9-4.2-55.6c-0.7-7.6,1.9-11.2,10-13c8-1.7,11.4,2.2,12,10
		c1.3,17.7,2.6,38.2,3.8,60.4c0.1,2.6-1.2,4.4-3.2,4.1c-1.9-0.2-3.3-2.3-3.5-4.8c-1.2-21.7-2.5-41.5-3.9-58.5
		c-0.4-3.2-1.2-5.6-4.6-5c-4,0.7-3.9,3.9-3.7,6.9c1.4,16,2.7,34.9,4,55.9C833.4,523.5,832.1,525.3,830.1,525.1z"/>
	<path d="M853.7,511.6c-0.1-1.7-0.2-3.4-0.3-5c-0.1-2.6,1.2-4.3,3.3-4.2c1.9,0.1,3.4,2,3.5,4.3c0,0.3,0.2,4.9,0.3,5.2
		c0.3,4.8,1.2,8.8,4.6,9.3c3.8,0.6,3.8-4.9,3.6-9c0-0.9-0.1-1.7-0.1-2.6c-0.7-16.5-16.4-28.8-17.6-45.1c-0.1-1.1-0.2-2.2-0.2-3.3
		c-0.6-8.5,2.4-13.5,10.1-15.7c8-2.2,11.5,2.6,12,12.1c0.1,1.7,0.2,3.3,0.3,5c0.1,2.6-1.3,4.7-3.3,4.9c-1.9,0.2-3.4-1.3-3.5-3.5
		c0-0.3-0.3-4.6-0.3-4.9c-0.3-4-1.3-6.7-4.7-6c-3.9,0.8-3.9,4.7-3.7,8.1c0.1,0.8,0.1,1.6,0.2,2.4c0.9,13.2,16.6,25,17.5,46.9
		c0.1,1.3,0.1,2.6,0.2,3.9c0.5,11.3-2.5,16.7-10,15.3C857.2,527.8,854.2,521.7,853.7,511.6z"/>
</g>
<path class="st0" d="M478.8,43.6c-5-4.8-12.1-7.1-20.2-6.1c-8.6,1.1-17.2,4.7-26.2,12c-16.7,13.4-23.8,30.7-30.3,46.3
	c-5.5,12.4-10.2,23.5-18.3,29.7c-14.6,10.4-32.7,7.5-44.7-7.3c-2.6-3.1-5.5-7.3-9.1-13.3c-1-2.4-1.9-4.8-2.9-7.2
	c-4.7-8.9-9.8-19.9-15.3-30.2c-4.8-9.4-9.1-18.5-13-26c-7-13.2-19.1-19.7-32.6-17.3c-4,0.7-8.3,2.5-12.5,4.9
	c-8.4,4.6-13.8,11.8-16.4,20.5c-1,3.3-0.9,6.4-0.9,9.4c-5.6-2.6-11.4-3.1-17.9-1.9c-6,1.1-11.7,3.7-17.7,7.9
	c-8.2,6.1-13.3,14.8-14.7,24.4c0,2.6-0.2,4.7-0.2,7.3c-6.2-3-12.6-3.9-19.1-2.7c-6.5,1.2-13.1,4.5-18.9,9.6
	c-7.1,6.5-11.1,15.4-11.5,24.8c-0.1,2.1,0.3,4.6,0.7,6.6c-29.4-25.1-63-54-67.3-57.4c-10.9-8.8-25.2-7.8-35.2,2.3
	c-9.5,10-8.8,25.3,1.8,35.3c1.9,1.7,6.3,6.1,12.5,12.2c25.6,24.2,78.1,74.5,95.8,92.4c13.2,13.1,18.5,21.9,24.6,33.2
	c4.4,6.9,8.9,14.9,16.5,25.4c17.2,23.7,42.9,39.7,72.1,44.1c12.7,1.8,25.7,2,37.6-0.2c16-2.9,31.8-9.4,45.4-19.7
	c35.1-25.5,55.1-54.4,73.1-80.4c6.9-10,13.5-19.5,20.6-28.5c11.7-15,18.7-39,25.3-61.9c5.4-18.5,10.5-36,17-45.4
	C488.9,70.6,488.8,53.6,478.8,43.6z M248,51.6c1.6-5.5,5.4-10.3,10.9-13.9c2.8-1.5,6.2-2.7,9.2-3.2c9-1.6,16.5,2.7,21.2,11.6
	c4,7.5,8.2,16.6,13,26c5,10.4,10.6,21.3,15.3,30.2c6.3,11.8,4.1,19.4-7.2,25.6c-2.8,1.5-5.2,2.5-7.7,3l0,0
	c-7,1.3-12.8-2.3-17.9-10.2c-3.6-5.5-7.9-12-12.1-18.4c-7.1-10.6-15-22.6-22.2-34.1C247.5,63.1,246.9,57,248,51.6z M197.6,89.7
	c0.8-6.9,4.4-12.7,10.3-17.4c4-3.3,8.4-5.1,12.8-6c9-1.6,16.4,2.2,22.6,10.8c5.5,7.8,11.5,17.5,18,27.7
	c7.1,10.6,14.4,22.2,20.7,31.3c9,12.8,7.5,21.3-4.3,30.2c-3.6,2.7-6.9,4.4-10.4,5l0,0c-7,1.3-13.2-1.7-19.8-9.3
	c-2.5-2.6-4.7-5.9-7.8-8.9c-11.8-13.8-25-29.5-37.1-44.8C198.5,103,196.8,96.6,197.6,89.7z M148.3,127.6c0.4-6.3,2.9-12.4,7.8-16.9
	c3.9-3.8,8.7-6.2,13.2-7c7.5-1.4,15.3,1.9,21.4,9.5c6,7.2,13.3,16.2,20.7,25.6c8,9.9,16.2,20.8,23.3,28.8
	c9.9,11.6,9.9,20.4-0.3,29.5c-3.5,3.2-7.3,5.5-10.8,6.1l0,0c-6,1.1-12.2-1.9-19-7.9c-2.5-2.6-5.6-5.2-8.2-8.3
	c-13.1-12.6-27.7-27.5-41.6-41.4C150.7,140.6,148,134.4,148.3,127.6z M469.2,78.8c-7.8,10.7-13.2,29.3-18.9,48.9
	c-6.3,22.3-12.9,45.2-23.4,58.5c-7.6,9.1-14.1,19.1-21,29.1c-18,26-36.7,53.2-70.4,77.9c-21.9,15.9-48.1,22.2-74.7,17.8
	c-26.6-4.4-49.3-18.4-65.1-39.7c-6.9-9.6-11.5-17.5-15.8-24.5c-6.7-11.2-12.6-20.9-26.6-35.4c-17.7-17.9-70.8-68.6-96.4-92.9
	c-6.3-6.1-10.6-9.9-12.5-12.2c-6.3-6.1-6.7-14.3-1.6-19.8c5.6-6.2,13.8-6.6,20.4-1.1c7.3,5.9,105.8,90.6,110.2,94.5
	c5.1,5.3,10.7,10.4,15.7,15.2c3.1,3,5.7,5.7,8.2,8.3c9.4,9.1,18.9,13.1,28.4,11.3l0,0c5.5-1,11.1-4.1,16-8.6
	c8.4-7.7,12-16.1,10.9-25.2c4.5,2.3,9.8,2.9,15.8,1.8l0,0c5-0.9,10.3-2.9,15.3-6.9c12.7-9.5,14.4-20.2,10.5-32.9
	c2.7,0.5,5.2,0.1,5.2,0.1l0,0c5-0.9,9.9-2.3,13.6-4.6c7.5-4,12.8-9,15-14.1c0.1,0.5,1.2,0.8,1.2,0.8c15.4,19.4,40.3,23.1,59.5,9.3
	c10.5-7.6,16.4-20.5,22.2-34c6.5-15.1,13.1-30.3,27.4-42.2c12.6-10,25-12.8,31.9-6.3C475.9,56.5,477.9,66.9,469.2,78.8z"/>
</svg>
