<?xml version="1.0" encoding="utf-8"?>
<!-- Generator: Adobe Illustrator 24.0.1, SVG Export Plug-In . SVG Version: 6.00 Build 0)  -->
<svg version="1.1" id="Livello_1" xmlns="http://www.w3.org/2000/svg" xmlns:xlink="http://www.w3.org/1999/xlink" x="0px" y="0px"
	 viewBox="0 0 439.1 484" style="enable-background:new 0 0 439.1 484;" xml:space="preserve">
<style type="text/css">
	.st0{fill:#030404;stroke:#010101;stroke-miterlimit:10;}
</style>
<g>
	<path class="st0" d="M35.8,69.9c0,0-11,4.8-10.3,8.2s10.1-4.8,17.1-4.1c6.9,0.7-9.6,10-9.6,10s-2.6,1.5-0.4,3.7
		c2.1,2.2,11.7-4.9,15-7.8s0.4,6.8-0.1,8.2c-0.6,1.4,1.4,10.4,12.3-7.5c0,0,1.2-2.2,8.6-7c0,0,25,2.1,32.4,0.3c0,0,13.1,7,27.8,9
		c14.8,1.9,13.1,2.9,27.2,2.6c0,0,11.4,18.4,21.9,25.6c0,0,17,26.9,32.4,30.5c0,0,5.9,4.3,14.7,13.8c0,0,6.3,4.3-7.5,13.1
		c-13.7,8.8-38.9,31.4-50.4,54.7c0,0-6,8.5-5.9,8.8c0,0-8.4,11,14.1,29.8s27.4,29.2,27.4,29.2s-65.9-58-103-70.4
		c-37.1-12.3,11.6,71,112.2,155.1s171.4,92.3,213.1,90.7c0,0-103.6-95.3-130.8-112.8l1.6-6.2c0,0,3.3-8.9-8.9-13.9
		c-12.2-5-1.3-60.3-37.1-89.1c0,0-5.8-6.9,8.3-8.2l3.4,3.1c0,0,9.6,0.9,30.9-22.4c0,0,6.4,5.6,1.6,34.6
		c-4.9,28.9-14.5,11.2-5.7,26.6c0,0,1.8,4.5,1,10.9c-0.7,6.4,7.1,1,4.9-10.4c0,0,4.9,3.6,1,17.7s5.3,5.8,6.8-0.8
		c0,0-0.5,3.1,3.7,0.2c0,0,4,0.2,5.4-2.7c0,0,1.7,0.1,2.5-1.9c0,0,3.9,2.3,3.1-8.2c-0.9-10.5-1-15.1-4.6-18.4
		c-3.6-3.4,3.5-53.1,3.5-53.1s5.4-26.4-2.5-32.2c0,0,9.2-13-6.7-31.6c-15.8-18.6-31.7-40.9-31.7-40.9S260,84.9,242,79.5
		c-18.1-5.3-18.6-7.5-18.6-7.5v-4.5c0,0,2.4-1.6,3.5-6.2s2.4-4.6,1.1-12.4c-1.4-7.8,1.6-14.8,1.6-14.8s0.5-18-18.5-21.1
		c-19.1-3.2-27.2,8.6-27.2,8.6s-4,4.3-5.1,17.2c0,0-6.7,7,0,16.4c0,0,2.7,5.9-1.3,7.8c-4,1.8-7.8-2.2-7.8-2.2s-12.1-5.9-31.5,1.6
		c0,0-4.8,0.3-7.8-3.8c-3-4.1-24.4-3.3-24.4-3.3s-13.8-10.2-40.3,3.6c0,0-8.2-1.8-15.7,5.7c0,0-4.4,1.8-6.5-1.7S26.6,62.3,21.4,69
		C16.2,75.7,25.7,70.2,35.8,69.9z M226.8,258.1c32.3,42.8,39.4,74.3,39.4,74.3c-15.7-12-43.8-30.3-43.8-30.3
		c5.1-12.9,3.2-25.7-1.8-24.7c-5,1.1-7.1-6-7.1-6c-0.8-19.5-11.2-29.5-11.2-29.5c5.8-3.7,17-19.5,17-19.5
		C209.8,242.8,226.8,258.1,226.8,258.1z"/>
</g>
</svg>
