<?xml version="1.0" encoding="utf-8"?>
<!-- Generator: Adobe Illustrator 24.0.1, SVG Export Plug-In . SVG Version: 6.00 Build 0)  -->
<svg version="1.1"
	 id="Livello_1" xmlns:cc="http://creativecommons.org/ns#" xmlns:dc="http://purl.org/dc/elements/1.1/" xmlns:inkscape="http://www.inkscape.org/namespaces/inkscape" xmlns:rdf="http://www.w3.org/1999/02/22-rdf-syntax-ns#" xmlns:sodipodi="http://sodipodi.sourceforge.net/DTD/sodipodi-0.dtd" xmlns:svg="http://www.w3.org/2000/svg"
	 xmlns="http://www.w3.org/2000/svg" xmlns:xlink="http://www.w3.org/1999/xlink" x="0px" y="0px" viewBox="0 0 32 40"
	 style="enable-background:new 0 0 32 40;" xml:space="preserve">
<g>
	<path d="M12.5,1.5c-5.4,11.3-6.1,24.3-1.9,36.1c0.2,0.5,0.7,0.9,1.2,0.9h1.3c0.6,0,1.1-0.3,1.2-0.9C18.6,25.8,18,12.8,12.5,1.5z"/>
	<path d="M21.6,28.2c1.3,0.8,2.2,2.1,2.5,3.6c-0.7-0.6-1.6-1-2.5-1.1c0,0.9-0.1,1.8-0.1,2.7c1.3,0.8,2.2,2.1,2.5,3.6
		c-0.7-0.6-1.7-1-2.6-1.1c0,0.6-0.1,1.3-0.1,1.9c0,0.4-0.3,0.6-0.7,0.6c-0.4,0-0.6-0.3-0.6-0.7c0.6-9.5,0.6-19.1,0-28.6
		c-0.2-2.3-0.8-4.6-1.8-6.8c-0.2-0.3,0-0.7,0.3-0.9c0.3-0.2,0.7,0,0.9,0.3c1.1,2.3,1.7,4.7,1.9,7.2C21.6,15.5,21.7,21.8,21.6,28.2z"
		/>
</g>
</svg>
